<?xml version="1.0" ?><!-- Uploaded to: SVG Repo, www.svgrepo.com, Generator: SVG Repo Mixer Tools -->
<svg width="800px" height="800px" viewBox="0 0 24 24" data-name="016_FOOD" id="_016_FOOD" xmlns="http://www.w3.org/2000/svg"><defs><style>.cls-1{fill:#333;}</style></defs><path class="cls-1" d="M18,14.49a1,1,0,0,1-1-1c0-2.27-2.24-4.12-5-4.12s-5,1.85-5,4.12a1,1,0,1,1-2,0c0-3.37,3.14-6.12,7-6.12s7,2.75,7,6.12A1,1,0,0,1,18,14.49Z"/><path class="cls-1" d="M18,8.62a1,1,0,0,1-1-1c0-2.27-2.24-4.12-5-4.12S7,5.35,7,7.62a1,1,0,1,1-2,0C5,4.25,8.14,1.5,12,1.5s7,2.75,7,6.12A1,1,0,0,1,18,8.62Z"/><path class="cls-1" d="M16.45,22.06a8.88,8.88,0,0,1-1.67-.2,1,1,0,1,1,.39-2,7.86,7.86,0,0,0,1.28.16c.53,0,.55-.06.55-.52,0-2.27-2.24-4.12-5-4.12s-5,1.85-5,4.12c0,.43,0,.52.59.52a11.24,11.24,0,0,0,2-.31,11.63,11.63,0,0,1,2.4-.36,1,1,0,0,1,1,1,1,1,0,0,1-1,1h0a11.08,11.08,0,0,0-2,.31,11.91,11.91,0,0,1-2.43.36A2.33,2.33,0,0,1,5,19.54c0-3.38,3.14-6.12,7-6.12s7,2.74,7,6.12A2.31,2.31,0,0,1,16.45,22.06Z"/></svg>