<?xml version="1.0" encoding="iso-8859-1"?>
<!-- Uploaded to: SVG Repo, www.svgrepo.com, Generator: SVG Repo Mixer Tools -->
<svg height="800px" width="800px" version="1.1" id="Layer_1" xmlns="http://www.w3.org/2000/svg" xmlns:xlink="http://www.w3.org/1999/xlink" 
	 viewBox="0 0 512 512" xml:space="preserve">
<path style="fill:#E07188;" d="M83.278,70.94C46.266,107.952,33.928,181.976,33.928,256s12.337,148.048,49.349,185.06h345.445V70.94
	H83.278z"/>
<g>
	<polygon style="fill:#DC4161;" points="83.278,441.059 83.278,502.746 107.952,478.071 132.627,502.746 157.301,478.071 
		181.976,502.746 206.651,478.071 231.325,502.746 256,478.071 280.675,502.746 305.349,478.071 330.024,502.746 354.699,478.071 
		379.373,502.746 404.048,478.071 428.722,502.746 428.722,441.059 	"/>
	<polygon style="fill:#DC4161;" points="428.722,70.94 428.722,9.253 404.048,33.928 379.373,9.253 354.699,33.928 330.024,9.253 
		305.349,33.928 280.675,9.253 256,33.928 231.325,9.253 206.651,33.928 181.976,9.253 157.301,33.928 132.627,9.253 
		107.952,33.928 83.278,9.253 83.278,70.94 	"/>
	<path style="fill:#DC4161;" d="M428.722,70.94c-37.012,37.012-49.349,111.036-49.349,185.06s12.337,148.048,49.349,185.06
		c37.012-37.012,49.349-111.036,49.349-185.06S465.734,107.952,428.722,70.94z"/>
</g>
<circle style="fill:#F6E27D;" cx="206.651" cy="256" r="86.361"/>
<path style="fill:#C5142C;" d="M428.722,70.94v370.12c37.012-37.012,49.349-111.036,49.349-185.06S465.734,107.952,428.722,70.94z"
	/>
<g>
	<path style="fill:#2E2D31;" d="M487.325,256c0-43.735-4.425-105.585-25.507-151.884c-2.118-4.651-7.608-6.702-12.256-4.587
		c-4.651,2.118-6.704,7.605-4.587,12.257c15.599,34.255,23.844,84.123,23.844,144.213c0,78.659-14.171,138.802-40.096,171.187
		c-25.924-32.384-40.096-92.527-40.096-171.187c0-85.044,16.563-148.441,46.639-178.516c0.012-0.012,0.022-0.026,0.035-0.038
		c0.202-0.205,0.396-0.417,0.579-0.64c0.088-0.106,0.164-0.22,0.247-0.331c0.099-0.131,0.2-0.26,0.292-0.397
		c0.088-0.132,0.164-0.269,0.246-0.403c0.074-0.123,0.152-0.246,0.22-0.373c0.074-0.139,0.138-0.283,0.205-0.426
		c0.062-0.131,0.127-0.26,0.183-0.395c0.058-0.139,0.104-0.281,0.154-0.423c0.052-0.143,0.107-0.285,0.152-0.433
		c0.043-0.141,0.074-0.285,0.11-0.428c0.037-0.149,0.079-0.297,0.11-0.449c0.033-0.167,0.053-0.336,0.077-0.503
		c0.019-0.131,0.043-0.259,0.057-0.391c0.03-0.305,0.046-0.612,0.046-0.918V9.253c0-3.742-2.254-7.117-5.712-8.549
		c-3.456-1.431-7.437-0.643-10.083,2.005l-18.131,18.132L385.916,2.709c-3.614-3.612-9.473-3.612-13.085,0l-18.132,18.132
		L336.566,2.709c-3.614-3.612-9.473-3.612-13.085,0l-18.132,18.132L287.217,2.709c-3.614-3.612-9.473-3.612-13.085,0L256,20.842
		L237.868,2.709c-3.614-3.612-9.473-3.612-13.085,0l-18.132,18.132L188.519,2.709c-3.614-3.612-9.473-3.612-13.085,0l-18.132,18.132
		L139.169,2.709c-3.614-3.612-9.473-3.612-13.085,0l-18.132,18.132L89.82,2.709c-2.646-2.646-6.626-3.436-10.083-2.005
		c-3.458,1.431-5.712,4.807-5.712,8.549v58.005C33.343,111.095,24.675,193.711,24.675,256c0,5.111,4.143,9.253,9.253,9.253
		s9.253-4.142,9.253-9.253c0-82.575,15.618-144.736,44.057-175.807H409.11C377.283,126.019,370.12,199.398,370.12,256
		s7.163,129.981,38.99,175.807H87.234c-24.15-26.343-38.988-74.388-42.973-139.361c-0.312-5.101-4.698-8.93-9.802-8.669
		c-5.1,0.313-8.982,4.702-8.668,9.802c4.33,70.594,20.554,121.435,48.236,151.212v57.956c0,3.742,2.254,7.117,5.712,8.548
		c3.457,1.434,7.438,0.642,10.083-2.005l18.13-18.133l18.132,18.132c3.614,3.612,9.473,3.612,13.085,0l18.132-18.132l18.132,18.132
		c3.614,3.612,9.473,3.612,13.085,0l18.132-18.132l18.132,18.132c3.614,3.612,9.473,3.612,13.085,0L256,491.156l18.132,18.132
		c3.614,3.612,9.473,3.612,13.085,0l18.132-18.132l18.132,18.132c3.614,3.612,9.473,3.612,13.085,0l18.132-18.132l18.132,18.132
		c3.614,3.612,9.473,3.612,13.085,0l18.132-18.132l18.132,18.132c1.769,1.77,4.137,2.709,6.545,2.709
		c1.192,0,2.395-0.229,3.54-0.704c3.458-1.431,5.712-4.807,5.712-8.549V444.74C478.657,400.904,487.325,318.288,487.325,256z
		 M92.531,31.591l8.879,8.879c3.614,3.612,9.473,3.612,13.085,0l18.132-18.132l18.132,18.132c3.614,3.612,9.473,3.612,13.085,0
		l18.132-18.132l18.132,18.132c3.614,3.612,9.473,3.612,13.085,0l18.132-18.132l18.132,18.132c3.614,3.612,9.473,3.612,13.085,0
		l18.132-18.132l18.132,18.132c3.614,3.612,9.473,3.612,13.085,0l18.132-18.132l18.132,18.132c3.614,3.612,9.473,3.612,13.085,0
		l18.132-18.132l18.132,18.132c3.614,3.612,9.473,3.612,13.085,0l8.879-8.879v30.096H92.531V31.591z M419.469,480.407l-8.879-8.879
		c-3.614-3.612-9.473-3.612-13.085,0l-18.132,18.132l-18.132-18.132c-1.806-1.806-4.175-2.709-6.543-2.709
		c-2.368,0-4.736,0.903-6.542,2.709l-18.132,18.132l-18.132-18.132c-3.614-3.612-9.473-3.612-13.085,0l-18.132,18.132
		l-18.132-18.132c-3.614-3.612-9.473-3.612-13.085,0l-18.132,18.132l-18.132-18.132c-3.614-3.612-9.473-3.612-13.085,0
		l-18.132,18.132l-18.132-18.132c-3.614-3.612-9.473-3.612-13.085,0l-18.132,18.132l-18.132-18.132
		c-3.614-3.612-9.473-3.612-13.085,0l-8.879,8.879v-30.094h326.939V480.407z"/>
	<path style="fill:#2E2D31;" d="M302.265,256c0-52.721-42.892-95.614-95.614-95.614S111.036,203.279,111.036,256
		s42.892,95.614,95.614,95.614S302.265,308.721,302.265,256z M129.542,256c0-42.518,34.591-77.108,77.108-77.108
		s77.108,34.59,77.108,77.108s-34.59,77.108-77.108,77.108C164.134,333.108,129.542,298.518,129.542,256z"/>
</g>
</svg>